
<global>
amp_veltrack=0
ampeg_release=0.35
</global>

<group>
group_label=Group_0-42
lpc_hicc1=42
lpc_locc1=0

<region>
hikey=B3
hivel=127
lokey=A#3
lovel=1
lpc=EZKAQjiJScP1mWpDMyP+wnB+VkJhxBrCN36IQc4hAsAo7qK8R2gCwEUArkAhUo3AlTUbQElG0b8dRGg/3ySwv7KENz/GtHpAG07CwM4HoT/gVKw/NBJBQISir8DIxhlA
lpc_rms=-47.66
pitch_keycenter=A#3
sample=Trumpet_Plop_PP_A#3.opus
</region>

<region>
hikey=B4
hivel=127
lokey=A#4
lovel=1
lpc=u8yDQhg9Z8PPlqZDp9OEw0PIJEOwWOrCO36RQqTl58HufI9B54K7wb/eiUHn5RDAGOCzwHZLYUC1EipAZGaiv9jS7sCFnkxB6JeGwbjRx0GlpA/Cq0gqQvne+sGbeCFB
lpc_rms=-42.39
pitch_keycenter=A#4
sample=Trumpet_Plop_PP_A#4.opus
</region>

<region>
hikey=D#6
hivel=127
lokey=A#5
lovel=1
lpc=m8QfQq6k8sLJsCpDx0cVw1O110J9baPCi1iBQgB6LcK2aOlBJp7owcQcCkLNs8nB0KmrQICjE0FEgn3AjLgbwffzgUFHCwXBGTC6vz2JyUCNh43AUIVdQNEKmsA8YT1A
lpc_rms=-34.43
pitch_keycenter=A#5
sample=Trumpet_Plop_PP_A#5.opus
</region>

<region>
hivel=127
key=A3
lovel=1
lpc=OuZTQvYHJsNUU0JDtJ/UwoxNPkKh2iHCAUjBQd2VL8GiUB1B7tfnwNZqVkA8EAdA1S2/wKcZY0C/eje/poGyPweSjb/Bm329K94iQPzK6cCk0rpAX5ZQQP2L38AVczpA
lpc_rms=-48.30
sample=Trumpet_Plop_PP_A3.opus
</region>

<region>
hikey=C#4
hivel=127
lokey=C4
lovel=1
lpc=m21QQkN5HsMMojBDKbO2wkwSPEJ7ATvCmJ/VQeJPKcFYmCRBdqoKwYZKokBksR3APqQxQF4oicDzl3hA6avEv84E77+mnjdAl3oOwHxBhUC6ef3AoTIjQanb+MCuJyZA
lpc_rms=-48.53
sample=Trumpet_Plop_PP_C4.opus
</region>

<region>
hikey=C#5
hivel=127
lokey=C5
lovel=1
lpc=vRqMQpoPcMM8AqxDdi6Lw5G/K0OvpurCL6WpQsUyRcI1YChB+jIxQSfHHz/qRhvBzbTfvj3iZr+dBE5BDDUYwQyXDb+g+H9ATu3AwET1EEFFp2vB8UzAQXIxt8E22hFB
lpc_rms=-41.78
pitch_keycenter=C5
sample=Trumpet_Plop_PP_C5.opus
</region>

<region>
hikey=D#4
hivel=127
lokey=D4
lovel=1
lpc=gH1lQutGNMND+VRDrq7uwvvISkIhuw7CgBJ8QTqygb815bw/7qiNwGWkk0D4ppLApCfbQJAnaMCghfG/0+2bv/czkEBxIF++kkl2wMHzmkB3WZXAnXNHQMEcC8BomZw/
lpc_rms=-49.06
pitch_keycenter=D4
sample=Trumpet_Plop_PP_D4.opus
</region>

<region>
hikey=D#5
hivel=127
lokey=D5
lovel=1
lpc=G0F/QgEQUsPwOI9DetVVw6kn6ELbLobCa1UNQnKPgsFwwpVB4UmzwYzhfkHvI4PAeQ03v37AbsDP4ZtAKgmlv5A/6b67wsFA+AQfwUHPq0Af51I9DEK/Prnb8r+Je8U/
lpc_rms=-42.71
pitch_keycenter=D5
sample=Trumpet_Plop_PP_D5.opus
</region>

<region>
hikey=F4
hivel=127
lokey=E4
lovel=1
lpc=926TQkBSb8PgRZVDWT43w+cAm0LU5i7CqK65QfAaysDT4oHAx06cQGfnRUAfQu7AjyeVQHpGX8AuEcxAaLj3wMKYFEEqyX3APmaRwN5Vxj49+4RA3P2Kv31ylT815LO/
lpc_rms=-45.45
pitch_keycenter=E4
sample=Trumpet_Plop_PP_E4.opus
</region>

<region>
hikey=F5
hivel=127
lokey=E5
lovel=1
lpc=V4aBQpG+VsNbRptDiFmIwxLVQEPsqfjClqBXQmPhsj4FLUTB0mFuP4bd0kB7TQDB9i/uQJ68jr/DvuW/tRiNwKcWMUFbwibBhzjXQAKCFT8AekbBYpW4QT+rmsEW591A
lpc_rms=-39.45
pitch_keycenter=E5
sample=Trumpet_Plop_PP_E5.opus
</region>

<region>
hikey=G4
hivel=127
lokey=F#4
lovel=1
lpc=WbOkQkTIhcPqVKND0Gk7w7HqlkIdjEHCMRCjQR1ZAsAhrQBAA1oVv2YJRD9ER43ATH6JQLUKTMCthgJBxi6zwC2Lo8DXWABBIfWEwBBgkb+n74G/u7lGQTbdZ8FYfKdA
lpc_rms=-45.22
pitch_keycenter=F#4
sample=Trumpet_Plop_PP_F#4.opus
</region>

<region>
hikey=G5
hivel=127
lokey=F#5
lovel=1
lpc=rg5eQgRTOMOR84RDQiVdwz46E0NrweXCKZCsQjeRNcIoVLRB0fRowUwPo0DKbzdAJPtMwGqeGEASqYA/JOSdwBDn9z8TiShBA36awYiFikEMcLvAxbqHwKgS1ED5ghPA
lpc_rms=-41.35
pitch_keycenter=F#5
sample=Trumpet_Plop_PP_F#5.opus
</region>

<region>
hikey=A4
hivel=127
lokey=G#4
lovel=1
lpc=+EqYQrDwg8OibrZDoiCBwz7b7ULKB23CQX7cQRHgvMDK5fg/vNn1wHJmFUEA+XnAXs+aQFO5tMDq5qU/86Kqv5TUmz8RowZAEJ2nvw+dwD5oR2vBMrwUQvxKC8KEuT5B
lpc_rms=-43.52
pitch_keycenter=G#4
sample=Trumpet_Plop_PP_G#4.opus
</region>

<region>
hikey=A5
hivel=127
lokey=G#5
lovel=1
lpc=W2YpQlpmCcN5EkpDS7gyw3gp6kK5yYvC2O8yQvch4MFUFHdBaYgTwWEBJUEUwt7AtcDqPp0Wkj8kLkpA4qiIwOgatD8sl5BAfZbcwO39pUC7aBfATOBbQMd3gMCLy+A/
lpc_rms=-38.76
pitch_keycenter=G#5
sample=Trumpet_Plop_PP_G#5.opus
</region>

<region>
hikey=G#3
hivel=127
lokey=G3
lovel=1
lpc=UiNEQkVwHcN7k0NDEmvyws3zaEK5KCrCxg2sQaApv78d6Q0/JCenwLMxuUC3643AYWd0QMiCj8C03aVASUt6wN6hOD883ARAKXwwwOzskz8Po7q/pLulQFmyv8B6bBdA
lpc_rms=-48.73
pitch_keycenter=G3
sample=Trumpet_Plop_PP_G3.opus
</region>
</group>

<group>
group_label=Group_43-86
lpc_hicc1=86
lpc_locc1=43

<region>
hikey=B3
hivel=127
lokey=A#3
lovel=1
lpc=AEJAQrBUNcOguJNDu0iJw8ZzMUM5/dLCrfByQjbYxsEpAQpBdXoLwcqZM0Gc0DjB9n71QL0VfT75wCLAepSFwJZg6EB4B3+/sAUGwFGFb8BgPx5BOAkewao3skArUry/
lpc_rms=-40.43
pitch_keycenter=A#3
sample=Trumpet_Plop_MF_A#3.opus
</region>

<region>
hikey=B4
hivel=127
lokey=A#4
lovel=1
lpc=3AQTQvb4C8PaIndDxWGJwzsNZUO7sBrDcrSQQl7CcL50SRzCaTs3Ql9yDcJKK45B1MYLv80O1MDw+JRAaMQdwDfJxD9Jry5AIGkgwXXJgkF4h5DB/IJuQdfaBcFOryFA
lpc_rms=-33.93
pitch_keycenter=A#4
sample=Trumpet_Plop_MF_A#4.opus
</region>

<region>
hikey=D#6
hivel=127
lokey=A#5
lovel=1
lpc=FvleQZ5oAsL45TFCz/Iqwq7RFEJmburBsrW1QdnOc8Fy+DxBz6IYwYn2IkEtAQ7BZ78DQXodx8CAjM5AopG2wDz3vEA34ELAy9CNP0WQBT91RQdAxdd5wJ+EhUDZNxbA
lpc_rms=-26.52
pitch_keycenter=A#5
sample=Trumpet_Plop_MF_A#5.opus
</region>

<region>
hivel=127
key=A3
lovel=1
lpc=X08rQtgrHsMYMHxDEENnw3ObGEMwZ8fCrhOGQjQdCcJ1GVdB7p0KwfuVCkG88vrAjDmeQP8YqrwxXgK+vJOVwBvcdkD4LFJAsFrKwD3elUDg96XAl3zSQE0WjcAILps/
lpc_rms=-41.24
sample=Trumpet_Plop_MF_A3.opus
</region>

<region>
hikey=C#4
hivel=127
lokey=C4
lovel=1
lpc=Z6ZHQuT1QcNsCadDGrarw4Aqf0PfjCjDCd/OQmHqOMKgBUlBs6XdwDEarkDg4Vc/acZjwKKIfEAGD23ADFUFPh3U4z5D1cRAXmEkwc8UukBe754/5mV/wPGRKUCRNzi/
lpc_rms=-38.84
sample=Trumpet_Plop_MF_C4.opus
</region>

<region>
hikey=C#5
hivel=127
lokey=C5
lovel=1
lpc=UZVFQqvyNsPpSpxDO/Cmw4UnhEND1izDe1e7Qk71JcIKdqZB9F85wXpijj9kkJ1AtH92wHow8j+wjD1Arck5wVFub0Gq1ebATQGkwGVlfEFCYb3BwH/RQeIdlsHWHslA
lpc_rms=-30.30
pitch_keycenter=C5
sample=Trumpet_Plop_MF_C5.opus
</region>

<region>
hikey=D#4
hivel=127
lokey=D4
lovel=1
lpc=BKotQvV8JcProYxDU76Nw1VESkOTx/nCAsqQQjnGAcLbTTRBYJ7wwHqI00AUGXrAXqeaP0OxZUD/Y/DABw2KQFi7CkBO1+S/9ABSwJLK0ECgAuPA4d+7QOkwY8ATiqc/
lpc_rms=-39.91
pitch_keycenter=D4
sample=Trumpet_Plop_MF_D4.opus
</region>

<region>
hikey=D#5
hivel=127
lokey=D5
lovel=1
lpc=puvcQSDQw8IoCiJDBBAow44MA0PraLTCtKxpQoOZA8Lt9HZBPKbTwByupUAcK+vAnOcgQVCiLsF0ZTJBQX5aweVYiUF9NFvB1aBeQGCao0D5CA3B2uwvQeZWF8GfR31A
lpc_rms=-34.62
pitch_keycenter=D5
sample=Trumpet_Plop_MF_D5.opus
</region>

<region>
hikey=F4
hivel=127
lokey=E4
lovel=1
lpc=EPcaQpZpGMPPJYlDlryYwxAufUNTYTXDWbfrQngujsJX+jtCoMb9wRy8bEFX/8/AeDsGQb638MAozPQ/yuxtQIKBI8FWIXNBWaJewZg/IEF9mAPBnqTvQKoAncCHzcU/
lpc_rms=-37.89
pitch_keycenter=E4
sample=Trumpet_Plop_MF_E4.opus
</region>

<region>
hikey=F5
hivel=127
lokey=E5
lovel=1
lpc=jgUaQnBZ+8IEuDpD8z0qwy6t+UKhnbbCpLB5QtOUFMLYksRB/vl6wSw6AUFPfa3ALCb6QEpo5cCLDr4/Nu74QFJjhcGFos5BD9L2wfxs50Hci9jB6ID8Qadx1sH0hixB
lpc_rms=-31.18
pitch_keycenter=E5
sample=Trumpet_Plop_MF_E5.opus
</region>

<region>
hikey=G4
hivel=127
lokey=F#4
lovel=1
lpc=bkyAQgi4fMO339hDzYrXw4C7lUP0gzrDEAjqQhzkhMKxVh9C6QsJwl/XCEJLF7/BwUvbv7YinUE85xHByMIVwSHzAEElyQVB2aqIwUagIEGps5s/hZOZwFbeCUDCaR6+
lpc_rms=-34.17
pitch_keycenter=F#4
sample=Trumpet_Plop_MF_F#4.opus
</region>

<region>
hikey=G5
hivel=127
lokey=F#5
lovel=1
lpc=lPMQQi+F38KpCSRDrv0Sw2XuykJTKZDCDfVxQqm9PsKvjQ9CFyXMwVKijUHgtUHBnAc7QU2hEsEfmKtAUxRIv7GYT8C4yjhBTDeFwTZlkkHaVpnBUv+yQdIZjMFMXvVA
lpc_rms=-31.00
pitch_keycenter=F#5
sample=Trumpet_Plop_MF_F#5.opus
</region>

<region>
hikey=A4
hivel=127
lokey=G#4
lovel=1
lpc=ZaRcQnzUT8OsPqpDnIKgwyxRVkMwxwrDdVm9QklpOMLBdl1AJowsQUcQoj/5aGzBa2ITQZvmAUEP1pvBLNy7QTp+uMG803NBvdT1wFWuSEGNfrDBGiuqQbWdNMFkeUdA
lpc_rms=-35.57
pitch_keycenter=G#4
sample=Trumpet_Plop_MF_G#4.opus
</region>

<region>
hikey=A5
hivel=127
lokey=G#5
lovel=1
lpc=Z2axQTt0gcItXL5C51+zwm5VhUIZsCjCHZ7NQcKGfsEkD2tBDshxwRRGhUFMH2XBo5IqQWxslcDaojZAGQVNwFKxqEA2VmjARnwZQHoufz9H4qjAEvohQdL078BF4DxA
lpc_rms=-31.10
pitch_keycenter=G#5
sample=Trumpet_Plop_MF_G#5.opus
</region>

<region>
hikey=G#3
hivel=127
lokey=G3
lovel=1
lpc=X2kwQmwUH8PbEXNDqhFSw6M5BkNaorTCerlhQk0kocFwtBlALNe7v3kfGUARoOS/fCuVP5p9Hr9HgBFAyAemwM/YnEBm43y/mNsowAKPTUAkV8y/eiSWvn6+sj8ZZVO/
lpc_rms=-42.96
pitch_keycenter=G3
sample=Trumpet_Plop_MF_G3.opus
</region>
</group>

<group>
group_label=Group_87-127
lpc_hicc1=127
lpc_locc1=87

<region>
hikey=B3
hivel=127
lokey=A#3
lovel=1
lpc=04qcQRUlgsIp7cdCsdzIwl0pq0I80Y3CB0dbQhcLGMLReM1BMMeRwWLdVkEgxiXBfbgFQVb0ycBU06hASp+6wESdwEDodnPA1AWmP8odob7X3YQ9jFiHPo4Hw74Fcl8+
lpc_rms=-36.72
pitch_keycenter=A#3
sample=Trumpet_Plop_FF_A#3.opus
</region>

<region>
hikey=B4
hivel=127
lokey=A#4
lovel=1
lpc=Jd18QWFBV8Jt0rZC0fPUwudpy0J7Pa3CG7yGQpcVQsK4HQ1CCX/dwVyFukHb95TBnppKQaOSw8A/owlAPUajv3/Kpj/s4BS/gfo/PZ+Jgj/UijLA8KWJQFqJaMB9DKc/
lpc_rms=-32.29
pitch_keycenter=A#4
sample=Trumpet_Plop_FF_A#4.opus
</region>

<region>
hikey=D#6
hivel=127
lokey=A#5
lovel=1
lpc=Ut0nQU6mqsGT/NlBHSvKwQcJtkEnS5HBL6xsQbpFJsEMyQdBi0HBwOrgu0A4K6HA1YPDQPqslMAlUWdAaRO3v7YI0T82SW+/OJwMQHhVIcDKPYRAQJxiwJiYaEDbjhrA
lpc_rms=-24.60
pitch_keycenter=A#5
sample=Trumpet_Plop_FF_A#5.opus
</region>

<region>
hivel=127
key=A3
lovel=1
lpc=d4C2QQvhpMInUw5Dh4kiw3gxFUMWUffCS6jAQo6cj8K8QlZCDhMjwsAC/kETtMjBXqSYQTDbWMH9LiFBIH8NwbEe/EAbRafAwfzEP15Jyz9lGk3AB/JXQALbFMCTrTs/
lpc_rms=-35.89
sample=Trumpet_Plop_FF_A3.opus
</region>

<region>
hikey=C#4
hivel=127
lokey=C4
lovel=1
lpc=MMOAQTtZUcIKuKJCnomswsRFmkI6X4HC6h9QQlg2IsJofwFCYBHcwStswkG4FabBS1iDQarSSMEhLChB63MTwdkr70BTlKDAW+YiQIVnTL9W0iG+deM9PyA6Er/+x/k9
lpc_rms=-34.20
sample=Trumpet_Plop_FF_C4.opus
</region>

<region>
hikey=C#5
hivel=127
lokey=C5
lovel=1
lpc=7lGBQe/xXsIysr9CQ7rhwuX+10Ipj7bCnwGKQq2HOcLi/etBw8ybwTOhXkG8pijBE5YEQaqHxsAy6HZAxCWQv9/Go79dMStA3X8bwEdA0T9oZQHAIwiFQPJogcA5FdA/
lpc_rms=-29.66
pitch_keycenter=C5
sample=Trumpet_Plop_FF_C5.opus
</region>

<region>
hikey=D#4
hivel=127
lokey=D4
lovel=1
lpc=feVcQSNTMsKhWo1CSCqbwmJUkkJx8YDCn65TQuI9I8LZ7gFCwgXgwVE9yUGkgq7BGM+IQRvyKcHsJ4VAP0ExP3sSesA12M1AGL4OweIaMUH9pzXBugYRQS9tmsBVrKE/
lpc_rms=-35.10
pitch_keycenter=D4
sample=Trumpet_Plop_FF_D4.opus
</region>

<region>
hikey=D#5
hivel=127
lokey=D5
lovel=1
lpc=JTANQfpxx8EvkQ5C8zcQwtP4+EGS+r/B2BCLQd8TQMEQxgZBUly/wKkNlUDxgGjAZtFOQE15ZMAzgpRAtKCjwCTVtEAWILnAjT6cQMiyYcCj6gJAj+4dv4178T1ApE09
lpc_rms=-30.29
pitch_keycenter=D5
sample=Trumpet_Plop_FF_D5.opus
</region>

<region>
hikey=F4
hivel=127
lokey=E4
lovel=1
lpc=/N2JQYXbbMJoBMlC/3/rwn1s5kI1H8zCciemQs10gsKosFZChCgywle8CEIhiLvBemRVQetPi8B+7jm/m6slQLt4jsC9mMxAz1XqwN/h80DW0+/ADsfLQANkdsDQpK0/
lpc_rms=-33.98
pitch_keycenter=E4
sample=Trumpet_Plop_FF_E4.opus
</region>

<region>
hikey=F5
hivel=127
lokey=E5
lovel=1
lpc=4xKAQfeAUsJHba5C+/PGwrNfukJf35rCVMJxQk45OcJjRgtCQKW/wTRCbUEUG67AC2YswNO980BJggfBh3D5QIIV88DlnxxByghHwcZsV0FOq1PBXKJNQbdIEMHnw1VA
lpc_rms=-28.69
pitch_keycenter=E5
sample=Trumpet_Plop_FF_E5.opus
</region>

<region>
hikey=G4
hivel=127
lokey=F#4
lovel=1
lpc=61mqQb86ncLdXA9DPzcyw5jmMkN3uhvDrC7wQmDlrsKJbYpCGPV0woiCX0LijEfCJRUiQuJoz8FOIDhBkBoSwEaT079XUDpAyy97wKzZ90BD/EXBQGFNQQJ1+cCEzRBA
lpc_rms=-32.69
pitch_keycenter=F#4
sample=Trumpet_Plop_FF_F#4.opus
</region>

<region>
hikey=G5
hivel=127
lokey=F#5
lovel=1
lpc=ZzlaQYaHG8IF5GxCArZ+wisiaUIopjfCx+D3QUrQgcEC+PFAynOJwBHynkDejJXAX+1XQOL/8r5+iie+LT4rvq/Msr3fzVdAfj6gwDdktECJEbbAnM3lQGT/y8C9t2JA
lpc_rms=-27.94
pitch_keycenter=F#5
sample=Trumpet_Plop_FF_F#5.opus
</region>

<region>
hikey=A4
hivel=127
lokey=G#4
lovel=1
lpc=uf7AQQTdssKlHh5DQp42w4ebJENqDQDD6f2sQuoOT8KG4QdC6jnVwSB7mkFaIEvBVhLRQJ4u4z/Sr9TA3nOOQCokdL1IaWnAm+zzQPbFBsEWBzhAfRaDQCfTpsBKWAZA
lpc_rms=-31.94
pitch_keycenter=G#4
sample=Trumpet_Plop_FF_G#4.opus
</region>

<region>
hikey=A5
hivel=127
lokey=G#5
lovel=1
lpc=UNhZQfY+DMKfZ0tCQkRQwmPHO0LNNBLC8UvSQYMcgcG79yhBFea6wK02jUDAG76/6Ywwv0YeekDrx2nArLRYQB1nzL9Oweg/s8Yjv7R7kj9O4Ry/MkGpP02Tcb42D0w/
lpc_rms=-27.36
pitch_keycenter=G#5
sample=Trumpet_Plop_FF_G#5.opus
</region>

<region>
hikey=G#3
hivel=127
lokey=G3
lovel=1
lpc=uOihQcmHksIbVQFDkLsbwx3nGUPQ0gjD+prgQqjhrcJckYRC4ZxKwhkrGkI1JO3BMJG1Qd0MfcF26R1BSy/NwOLjnUBwJ5jA46OeQHi/c8B8a3o/jpvOP7bw8b9Dbw4/
lpc_rms=-34.78
pitch_keycenter=G3
sample=Trumpet_Plop_FF_G3.opus
</region>
</group>